<svg width="44" height="44" viewBox="0 0 44 44" fill="none" xmlns="http://www.w3.org/2000/svg">
<path d="M40.9025 19.2025C40.4787 19.6546 40.0408 20.135 39.5887 20.6436C39.1366 21.1521 38.5644 21.8303 37.8722 22.6779C37.1799 23.5256 36.6219 24.3732 36.198 25.2209C35.7742 26.0686 35.5623 26.8032 35.5623 27.4248C35.5623 28.1877 34.2414 28.8305 31.5995 29.3532C28.9577 29.8759 25.7577 30.1373 21.9998 30.1373C18.2419 30.1373 15.042 29.8759 12.4001 29.3532C9.75824 28.8305 8.43731 28.1877 8.43731 27.4248C8.43731 26.6054 8.05586 25.5812 7.29297 24.3521C6.53008 23.1229 5.81663 22.134 5.15264 21.3853C4.48864 20.6365 3.83171 19.9372 3.18184 19.2873C1.26048 17.4225 0.299805 15.162 0.299805 12.5061C0.299805 9.87832 1.22516 7.6391 3.07588 5.78838C4.9266 3.93766 7.16582 3.0123 9.79356 3.0123C10.4434 3.0123 11.1215 3.08294 11.8279 3.22422C11.3758 4.38268 11.1498 5.66829 11.1498 7.08105C11.1498 10.1044 12.0822 12.6191 13.9471 14.6252C13.8906 13.0994 13.8623 11.4889 13.8623 9.79356C13.8623 7.16582 14.6535 4.9266 16.2357 3.07588C17.818 1.22516 19.7394 0.299805 21.9998 0.299805C24.2602 0.299805 26.1816 1.22516 27.7639 3.07588C29.3462 4.9266 30.1373 7.16582 30.1373 9.79356C30.1373 11.5171 30.1091 13.1277 30.0525 14.6252C31.9174 12.6191 32.8498 10.1044 32.8498 7.08105C32.8498 5.66829 32.6238 4.38268 32.1717 3.22422C32.8781 3.08294 33.5562 3.0123 34.2061 3.0123C36.8338 3.0123 39.073 3.93766 40.9237 5.78838C42.7744 7.6391 43.6998 9.87832 43.6998 12.5061C43.6998 15.1338 42.7674 17.366 40.9025 19.2025ZM21.9786 32.8498C25.7224 32.8498 28.9223 32.5814 31.5783 32.0445C34.2343 31.5077 35.5623 30.8719 35.5623 30.1373V40.9873C35.5623 41.7219 34.2343 42.3577 31.5783 42.8945C28.9223 43.4314 25.7224 43.6998 21.9786 43.6998C18.2348 43.6998 15.042 43.4314 12.4001 42.8945C9.75824 42.3577 8.43731 41.7219 8.43731 40.9873V30.1373C8.43731 30.9002 9.75824 31.543 12.4001 32.0657C15.042 32.5884 18.2348 32.8498 21.9786 32.8498Z" fill="#D30C12"/>
</svg>
